<svg xmlns="http://www.w3.org/2000/svg" version="1.1" xmlns:xlink="http://www.w3.org/1999/xlink" xmlns:svgjs="http://svgjs.com/svgjs" width="1440" height="560" preserveAspectRatio="none" viewBox="0 0 1440 560"><g mask="url(&quot;#SvgjsMask1008&quot;)" fill="none"><path d="M211.96 552.96L260 552.96L260 601L211.96 601z" stroke="#e73635"></path><path d="M814.96 263.2L861.42 263.2L861.42 309.66L814.96 309.66z" stroke="#e73635"></path><path d="M728.56 324.43 a47.52 47.52 0 1 0 95.04 0 a47.52 47.52 0 1 0 -95.04 0z" stroke="rgba(233, 231, 14, 1)"></path><path d="M389.22 176.09L398.44 176.09L398.44 179.76L389.22 179.76z" stroke="rgba(233, 231, 14, 1)"></path><path d="M922.94 34.76 a47.01 47.01 0 1 0 94.02 0 a47.01 47.01 0 1 0 -94.02 0z" fill="rgba(233, 231, 14, 1)"></path><path d="M520.14 164.3a22.7 22.7 0 1 0-35.05 28.85z" stroke="rgba(88, 61, 179, 1)"></path><path d="M924.42 278.03a36.28 36.28 0 1 0 43.87 57.8z" stroke="#e73635"></path><path d="M765.18 558.74 a27.36 27.36 0 1 0 54.72 0 a27.36 27.36 0 1 0 -54.72 0z" fill="rgba(233, 231, 14, 1)"></path><path d="M1067.41 517.86L1080.53 517.86L1080.53 530.98L1067.41 530.98z" stroke="rgba(88, 61, 179, 1)"></path><path d="M1121.12 527.12a25.95 25.95 0 1 0-45.35-25.24z" fill="rgba(233, 231, 14, 1)"></path><path d="M1.7 2.14L56.84 2.14L56.84 23.78L1.7 23.78z" stroke="rgba(233, 231, 14, 1)"></path><path d="M1332.73 386.19L1354.5 386.19L1354.5 424.45L1332.73 424.45z" fill="#e73635"></path><path d="M1145.48 392.55 a11.96 11.96 0 1 0 23.92 0 a11.96 11.96 0 1 0 -23.92 0z" fill="rgba(88, 61, 179, 1)"></path><path d="M687.33 512.08 a28.56 28.56 0 1 0 57.12 0 a28.56 28.56 0 1 0 -57.12 0z" stroke="#e73635"></path><path d="M27.38 27.07L50.35 27.07L50.35 50.04L27.38 50.04z" stroke="rgba(233, 231, 14, 1)"></path><path d="M819.4 63.45 a36.11 36.11 0 1 0 72.22 0 a36.11 36.11 0 1 0 -72.22 0z" fill="rgba(233, 231, 14, 1)"></path><path d="M483.58 495.17L514.56 495.17L514.56 549.85L483.58 549.85z" fill="rgba(233, 231, 14, 1)"></path><path d="M405.31 233.96 a50.25 50.25 0 1 0 100.5 0 a50.25 50.25 0 1 0 -100.5 0z" stroke="rgba(233, 231, 14, 1)"></path><path d="M843.7 329.15a23.67 23.67 0 1 0-10.03-46.27z" stroke="#e73635"></path><path d="M318.93 289.5 a26.83 26.83 0 1 0 53.66 0 a26.83 26.83 0 1 0 -53.66 0z" fill="#e73635"></path><path d="M93.52 367.36L142.74 367.36L142.74 415.79L93.52 415.79z" stroke="rgba(233, 231, 14, 1)"></path><path d="M1295.9 361.6L1326.15 361.6L1326.15 374.01L1295.9 374.01z" fill="#e73635"></path><path d="M784.94 43.95L808.11 43.95L808.11 48.47L784.94 48.47z" fill="#e73635"></path><path d="M916.63 54.36L936 54.36L936 73.73L916.63 73.73z" stroke="#e73635"></path><path d="M989.7 519.41 a34.8 34.8 0 1 0 69.6 0 a34.8 34.8 0 1 0 -69.6 0z" fill="#e73635"></path><path d="M399.84 124.7L450.33 124.7L450.33 137.43L399.84 137.43z" fill="#e73635"></path><path d="M366.01 70.19L404.26 70.19L404.26 108.44L366.01 108.44z" fill="rgba(233, 231, 14, 1)"></path><path d="M188.51 267.99L238.96 267.99L238.96 318.44L188.51 318.44z" fill="rgba(233, 231, 14, 1)"></path><path d="M814.41 185.46a50.78 50.78 0 1 0-85.38-55z" stroke="rgba(233, 231, 14, 1)"></path><path d="M92.09 76.92a3.03 3.03 0 1 0 5.39 2.76z" fill="#e73635"></path><path d="M1371.58 210.51 a34.75 34.75 0 1 0 69.5 0 a34.75 34.75 0 1 0 -69.5 0z" stroke="rgba(88, 61, 179, 1)"></path><path d="M1069.49 513.37L1106.6 513.37L1106.6 550.48L1069.49 550.48z" fill="rgba(88, 61, 179, 1)"></path><path d="M989.67 28.07a10.33 10.33 0 1 0 13.56 15.59z" stroke="rgba(233, 231, 14, 1)"></path></g><defs><mask id="SvgjsMask1008"><rect width="1440" height="560" fill="#ffffff"></rect></mask></defs></svg>